<?xml version="1.0" standalone="no"?>
<!DOCTYPE svg PUBLIC "-//W3C//DTD SVG 20010904//EN"
 "http://www.w3.org/TR/2001/REC-SVG-20010904/DTD/svg10.dtd">
<svg version="1.0" xmlns="http://www.w3.org/2000/svg"
 width="2000.000000pt" height="2000.000000pt" viewBox="0 0 2000.000000 2000.000000"
 preserveAspectRatio="xMidYMid meet">
<metadata>
Created by potrace 1.11, written by Peter Selinger 2001-2013
</metadata>
<g transform="translate(0.000000,2000.000000) scale(0.100000,-0.100000)"
fill="#000000" stroke="none">
<path d="M14405 19460 c-31 -12 -59 -48 -107 -135 -102 -187 -208 -423 -208
-466 0 -16 -16 -70 -36 -121 -105 -272 -207 -621 -305 -1043 -20 -85 -26 -97
-46 -85 -53 30 -415 109 -613 134 -596 75 -1862 132 -2685 122 -569 -6 -1255
-24 -1445 -36 -91 -5 -271 -15 -400 -20 -129 -6 -291 -15 -360 -20 -69 -6
-213 -17 -320 -25 -451 -34 -1005 -140 -1128 -215 -18 -11 -34 -20 -36 -20 -4
0 -73 89 -262 340 -162 215 -292 382 -447 579 -45 57 -106 136 -136 175 -125
162 -430 522 -543 639 -51 52 -60 59 -85 53 -40 -10 -55 -34 -48 -76 11 -62 8
-83 -28 -183 -31 -87 -119 -377 -146 -482 -54 -212 -169 -852 -211 -1180 -21
-169 -36 -281 -69 -535 -29 -216 -61 -521 -71 -664 -4 -67 -13 -134 -19 -149
-6 -16 -33 -117 -60 -225 -28 -108 -68 -269 -91 -357 -45 -179 -190 -824 -214
-955 -61 -335 -114 -703 -131 -920 -4 -41 -10 -109 -15 -150 -17 -135 -50
-531 -60 -715 -5 -99 -14 -256 -19 -350 -12 -201 -18 -347 -31 -790 -11 -348
-14 -1516 -5 -1607 3 -29 10 -156 16 -283 21 -492 76 -951 150 -1260 10 -44
19 -85 19 -91 0 -6 -24 -14 -54 -17 -65 -7 -140 -38 -180 -75 -44 -42 -68 -86
-131 -242 -110 -275 -241 -506 -408 -722 -67 -87 -76 -91 -162 -61 -64 21
-135 92 -160 158 -16 42 -19 81 -21 252 -1 222 -4 233 -59 233 -62 0 -140
-113 -198 -287 -48 -144 -67 -268 -67 -435 0 -82 -4 -138 -10 -138 -5 0 -25
14 -45 31 -55 49 -119 189 -156 347 -18 74 -42 149 -54 166 -71 106 -201 19
-278 -186 -50 -131 -62 -209 -62 -408 0 -102 3 -214 8 -250 l7 -65 -28 60
c-43 90 -86 135 -129 135 -74 0 -113 -58 -146 -220 -45 -220 -42 -437 8 -635
26 -102 80 -225 115 -263 l22 -23 -26 -32 c-122 -150 -173 -230 -211 -331 -55
-146 -24 -222 115 -284 171 -77 348 -111 582 -112 117 0 503 27 666 46 51 6
63 -1 41 -23 -45 -45 -263 -469 -387 -754 -99 -226 -284 -686 -388 -964 -78
-209 -250 -667 -354 -940 -68 -181 -94 -247 -243 -625 -110 -279 -307 -734
-458 -1058 -22 -46 -39 -85 -39 -87 0 -1 -39 -83 -86 -181 -94 -196 -164 -345
-164 -350 0 -2 4259 -4 9465 -4 l9465 0 0 583 0 583 -306 625 c-526 1074 -665
1350 -944 1874 -114 215 -321 585 -365 655 -12 19 -48 80 -80 135 -186 317
-425 681 -557 845 -33 41 -25 50 44 50 70 0 193 26 253 54 70 32 140 98 172
160 33 64 42 181 20 245 -15 43 -15 44 22 120 189 387 242 793 140 1067 -22
57 -58 94 -93 94 -14 0 -58 -37 -126 -105 -58 -58 -108 -105 -111 -105 -4 0 1
27 12 59 25 83 49 253 49 352 0 190 -66 445 -132 517 -26 27 -78 30 -100 5 -8
-10 -36 -62 -61 -115 -54 -115 -92 -173 -166 -252 -73 -77 -229 -181 -247
-163 -2 2 2 30 11 63 29 113 16 239 -37 356 -35 76 -74 118 -108 118 -46 0
-59 -9 -102 -74 -38 -56 -112 -150 -148 -186 -8 -9 -48 -42 -87 -74 -83 -66
-105 -68 -147 -13 -31 41 -175 318 -225 433 -21 49 -64 148 -96 219 -31 72
-81 191 -111 265 -45 111 -52 137 -41 145 20 14 25 48 37 230 12 186 24 379
45 700 82 1248 110 1932 101 2530 -17 1257 -143 2215 -400 3060 -116 383 -227
665 -394 1005 -116 236 -159 309 -188 320 -13 5 -24 12 -24 14 0 3 -39 153
-86 333 -47 181 -105 402 -129 493 -87 332 -272 971 -387 1335 -102 325 -270
738 -333 821 -28 36 -111 94 -134 93 -9 0 -25 -4 -36 -9z m-8615 -4616 c0 -8
-5 -12 -10 -9 -6 4 -8 11 -5 16 9 14 15 11 15 -7z m23 3 c3 -8 1 -20 -4 -28
-6 -10 -9 -7 -9 14 0 29 5 35 13 14z m7 -51 c0 -11 -19 -15 -25 -6 -3 5 1 10
9 10 9 0 16 -2 16 -4z m8500 -3581 c0 -2 -26 -19 -57 -38 -32 -19 -98 -59
-148 -89 -708 -434 -1240 -703 -1354 -684 -116 18 -915 328 -894 346 4 4 40
12 78 18 79 12 377 69 910 174 370 72 1430 275 1453 277 6 0 12 -1 12 -4z
m-8055 -145 c457 -82 775 -141 1100 -204 99 -19 259 -49 355 -66 96 -17 195
-35 220 -40 25 -5 110 -21 190 -35 203 -36 198 -35 178 -46 -56 -31 -593 -235
-778 -295 -161 -52 -169 -53 -301 -6 -224 79 -392 162 -824 407 -137 78 -270
153 -295 167 -64 36 -289 168 -325 190 l-30 19 30 -5 c17 -3 233 -42 480 -86z
m9383 -1435 c-3 -3 -9 2 -12 12 -6 14 -5 15 5 6 7 -7 10 -15 7 -18z m-7235
-97 c59 -40 186 -159 280 -263 244 -270 348 -377 686 -713 403 -399 420 -413
501 -394 66 15 238 121 365 224 11 9 61 49 110 90 50 40 112 91 139 112 94 76
290 272 405 406 64 74 171 192 237 261 67 69 125 135 128 147 6 17 12 19 29
13 42 -16 169 -22 590 -31 232 -5 719 -16 1082 -26 729 -18 1280 -14 1695 11
140 8 377 22 525 30 149 8 313 17 366 20 l96 6 36 -133 c60 -227 84 -368 95
-578 10 -179 5 -280 -13 -280 -7 0 -52 15 -101 32 -78 29 -101 33 -189 33 -90
0 -105 -3 -152 -28 -61 -32 -168 -132 -183 -171 -13 -35 -13 -82 0 -107 9 -15
7 -20 -7 -25 -104 -32 -146 -71 -203 -183 -25 -50 -31 -73 -27 -102 5 -36 4
-37 -37 -49 -24 -7 -56 -28 -78 -51 -45 -47 -101 -185 -100 -247 0 -37 -5 -48
-38 -80 -94 -90 -125 -252 -76 -392 14 -41 24 -75 23 -77 -10 -10 -297 -113
-442 -159 -367 -117 -902 -211 -1615 -283 -717 -74 -1298 -96 -2275 -88 -678
6 -951 14 -1395 42 -129 8 -311 19 -405 25 -1156 70 -1877 156 -2472 296
l-111 26 -7 47 c-9 65 -37 122 -73 153 -22 19 -33 38 -38 69 l-7 42 29 -21
c62 -45 314 -120 494 -146 58 -8 179 -20 270 -25 179 -12 1581 -27 3130 -36
536 -2 1396 -10 1910 -16 1676 -20 2039 -2 2565 127 211 51 325 101 347 150
17 36 -14 71 -100 115 -56 28 -97 40 -180 53 -233 35 -367 39 -947 30 -308 -5
-1482 -9 -2610 -9 -1127 -1 -2610 -4 -3295 -9 -1167 -7 -1247 -9 -1280 -26
-20 -10 -60 -21 -90 -25 -75 -10 -192 -65 -221 -104 l-22 -31 -13 23 c-18 30
-20 35 -33 85 -14 51 -61 106 -111 132 -40 20 -49 43 -56 138 -8 109 -62 219
-135 272 -41 29 -43 32 -40 79 3 62 -29 140 -74 180 -19 16 -60 39 -92 52 -53
21 -74 23 -228 23 -141 0 -184 -3 -255 -21 -47 -12 -89 -18 -93 -13 -15 14 23
378 58 560 31 160 85 374 133 526 29 91 104 298 111 306 4 4 556 10 1226 13
1019 4 2112 20 2123 29 9 9 107 -17 135 -36z m7608 -771 c-13 -13 -26 -3 -16
12 3 6 11 8 17 5 6 -4 6 -10 -1 -17z m-10051 -1541 c0 -2 -7 -7 -16 -10 -8 -3
-12 -2 -9 4 6 10 25 14 25 6z m-2622 -143 c-10 -2 -26 -2 -35 0 -10 3 -2 5 17
5 19 0 27 -2 18 -5z m6969 -59 c-3 -3 -12 -4 -19 -1 -8 3 -5 6 6 6 11 1 17 -2
13 -5z m4883 -483 c-12 -23 -29 -35 -37 -27 -3 3 5 14 18 25 30 25 32 26 19 2z
m-9890 -109 c0 -12 -51 -34 -59 -27 -7 8 28 35 46 35 7 0 13 -4 13 -8z m5310
-2317 c352 -28 631 -66 950 -131 798 -162 1380 -420 1720 -763 115 -116 184
-218 223 -329 37 -107 43 -193 23 -307 -40 -231 -184 -440 -446 -649 -153
-121 -264 -193 -445 -288 -240 -125 -408 -191 -700 -273 -265 -74 -673 -145
-837 -145 -47 0 -153 -4 -235 -10 -598 -38 -1142 -24 -1558 41 -291 46 -700
163 -935 268 -109 49 -320 164 -410 224 -436 290 -670 619 -670 941 0 295 211
577 621 831 488 303 1276 520 2129 589 227 18 343 18 570 1z"/>
<path d="M9200 3793 c-34 -3 -55 -8 -200 -39 -161 -35 -456 -155 -598 -245
-253 -159 -431 -370 -527 -624 -121 -323 -60 -605 187 -870 202 -217 538 -423
796 -490 188 -49 460 -26 486 42 14 35 -18 63 -142 125 -131 65 -164 95 -164
143 0 50 33 69 123 74 91 4 145 -8 236 -52 71 -34 126 -87 186 -177 45 -70 67
-82 98 -54 26 23 24 39 -12 125 -61 144 -38 225 78 269 46 17 73 21 129 18 91
-6 158 -41 221 -117 52 -63 136 -231 127 -254 -10 -27 53 -117 81 -117 35 0
69 76 81 185 6 47 15 71 45 111 69 94 179 174 240 174 13 0 35 -7 48 -16 36
-25 26 -76 -35 -182 l-19 -33 23 -19 c31 -25 44 -19 128 60 72 68 193 142 252
155 28 6 32 4 32 -15 0 -30 -38 -116 -80 -179 -66 -100 -66 -99 -54 -118 28
-45 83 -16 229 118 99 91 320 209 390 209 23 0 25 -3 19 -27 -13 -57 -95 -150
-227 -256 -63 -51 -64 -93 -4 -116 42 -16 324 -13 467 4 391 49 628 154 856
380 157 155 230 278 265 447 23 113 24 190 4 297 -55 286 -217 543 -460 726
-139 105 -412 220 -631 266 -127 26 -339 41 -374 25 -43 -19 -37 -49 17 -84
55 -36 92 -80 131 -154 35 -69 38 -162 6 -205 -34 -46 -107 -89 -196 -114 -73
-20 -105 -23 -258 -24 -154 0 -184 3 -247 23 -52 16 -79 31 -98 54 -30 35 -30
59 -1 158 45 154 -8 242 -144 241 -64 0 -150 -36 -212 -89 -101 -86 -162 -109
-213 -82 -13 7 -48 43 -77 81 -59 76 -98 99 -163 99 -66 0 -85 -23 -85 -104 0
-35 7 -100 15 -143 22 -112 20 -155 -7 -180 -105 -97 -678 -94 -827 4 -54 35
-71 63 -71 118 0 112 113 255 290 366 30 19 68 40 84 47 19 9 26 16 19 23 -10
10 -199 19 -263 12z m96 -48 c-22 -17 -56 -20 -56 -6 0 9 25 17 60 19 11 1 10
-3 -4 -13z m1904 -1845 c0 -5 -5 -10 -11 -10 -5 0 -7 5 -4 10 3 6 8 10 11 10
2 0 4 -4 4 -10z"/>
</g>
</svg>
